<svg viewBox="-652.0000000000067 -46.54343217482756 100 100" xmlns="http://www.w3.org/2000/svg">
<path d="M362.5,362.5 L-362.5,362.5 z" fill="none" stroke="black" stroke-width="1"/>
<path d="M-362.5,362.5 L-362.5,-362.5 z" fill="none" stroke="black" stroke-width="1"/>
<path d="M-362.5,-362.5 L362.5,-362.5 z" fill="none" stroke="black" stroke-width="1"/>
<path d="M362.5,-362.5 L362.5,362.5 z" fill="none" stroke="black" stroke-width="1"/>
<path d="M-710,208.45657 L-710,-191.54343 z" fill="none" stroke="black" stroke-width="1"/>
<path d="M-710,-191.54343 L710,-191.54343 z" fill="none" stroke="black" stroke-width="1"/>
<path d="M710,-191.54343 L710,208.45657 z" fill="none" stroke="black" stroke-width="1"/>
<path d="M710,208.45657 L-710,208.45657 z" fill="none" stroke="black" stroke-width="1"/>
<path d="M650,-191.54343 L650,-44.54343 z" fill="none" stroke="black" stroke-width="1"/>
<path d="M-650,-44.54343 L-650,-191.54343 z" fill="none" stroke="black" stroke-width="1"/>
<path d="M710,-191.54343 L-710,-191.54343 z" fill="none" stroke="black" stroke-width="1"/>
<path d="M710,208.45657 L650,38.45657 z" fill="none" stroke="black" stroke-width="1"/>
<path d="M-650,38.45657 L-710,208.45657 z" fill="none" stroke="black" stroke-width="1"/>
<path d="M650,-44.54343 L-650,-44.54343 z" fill="none" stroke="black" stroke-width="1"/>
<path d="M590,-44.54343 L590,38.45657 z" fill="none" stroke="black" stroke-width="1"/>
<path d="M-590,38.45657 L-590,-44.54343 z" fill="none" stroke="black" stroke-width="1"/>
<path d="M650,209.70657 L650,208.45657 z" fill="none" stroke="black" stroke-width="1"/>
<path d="M-650,208.45657 L-650,209.70657 z" fill="none" stroke="black" stroke-width="1"/>
<path d="M650,208.45657 L-650,208.45657 z" fill="none" stroke="black" stroke-width="1"/>
<path d="M-590,-3.0434322 L590,-3.0434322 z" fill="none" stroke="black" stroke-width="1"/>
<path d="M650,-44.54343 L650,38.45657 z" fill="none" stroke="black" stroke-width="1"/>
<path d="M650,38.45657 L-650,38.45657 z" fill="none" stroke="black" stroke-width="1"/>
<path d="M-650,38.45657 L-650,-44.54343 z" fill="none" stroke="black" stroke-width="1"/>
</svg>