<svg viewBox="58475.69202655473 106846.01675292772 1527.5336830941844 2238.927254120156" xmlns="http://www.w3.org/2000/svg">
<path d="M59779.473,108605.52 L59755.063,108649.164 z" fill="none" stroke="black" stroke-width="0.5"/>
<path d="M59755.063,108649.164 L59768.152,108656.484 z" fill="none" stroke="black" stroke-width="0.5"/>
<path d="M59768.152,108656.484 L59746.184,108695.76 z" fill="none" stroke="black" stroke-width="0.5"/>
<path d="M59035.074,108246.37 L59048.168,108253.69 z" fill="none" stroke="black" stroke-width="0.5"/>
<path d="M59048.168,108253.69 L59072.58,108210.055 z" fill="none" stroke="black" stroke-width="0.5"/>
<path d="M59818.746,108627.5 L59033.305,108188.086 z" fill="none" stroke="black" stroke-width="0.5"/>
<path d="M59035.074,108246.37 L58602.99,109018.72 z" fill="none" stroke="black" stroke-width="0.5"/>
<path d="M59424.293,107192.22 L59467.93,107216.625 z" fill="none" stroke="black" stroke-width="0.5"/>
<path d="M59467.93,107216.625 L59475.254,107203.54 z" fill="none" stroke="black" stroke-width="0.5"/>
<path d="M59475.254,107203.54 L59514.523,107225.51 z" fill="none" stroke="black" stroke-width="0.5"/>
<path d="M59875.93,108504.8 L59016.31,108023.88 z" fill="none" stroke="black" stroke-width="0.5"/>
<path d="M59016.31,108023.88 L59023.633,108010.8 z" fill="none" stroke="black" stroke-width="0.5"/>
<path d="M59023.633,108010.8 L58980,107986.38 z" fill="none" stroke="black" stroke-width="0.5"/>
<path d="M59446.266,107152.945 L58958.027,108025.66 z" fill="none" stroke="black" stroke-width="0.5"/>
<path d="M58602.99,109018.72 L58849.594,109109.57 L59112.203,109119.77 L59365.117,109048.32 L59583.57,108902.22 L59746.184,108695.76" fill="none" stroke="black" stroke-width="0.5"/>
</svg>