<svg viewBox="1970.9609113638735 998.5303578550572 108.55384512111831 29.125367811883095" xmlns="http://www.w3.org/2000/svg">
<path d="M2015.3707,1000.25287 L2015.3707,1000.69904 L2017.1283,1000.69904 L2017.1283,1000.25287 z" fill="none" stroke="black" stroke-width="0.01"/>
<path d="M2017.1283,1000.25287 L2017.1283,1000.69904 L2017.5348,1000.69904 L2017.5348,1000.25287 z" fill="none" stroke="black" stroke-width="0.01"/>
<path d="M2017.5348,1000.25287 L2017.5348,1000.69904 L2019.2368,1000.69904 L2019.2368,1000.25287 z" fill="none" stroke="black" stroke-width="0.01"/>
<path d="M2006.0791,1000.07275 L2005.0487,1000.07275 L2005.0487,1000.62244 L2006.0791,1000.62244 z" fill="none" stroke="black" stroke-width="0.01"/>
<path d="M2004.7253,1000.07275 L2003.695,1000.07275 L2003.695,1000.62244 L2004.7253,1000.62244 z" fill="none" stroke="black" stroke-width="0.01"/>
<path d="M2001.9929,1003.19476 L2001.5085,1003.19476 L2001.5085,1003.43036 L2001.9929,1003.43036 z" fill="none" stroke="black" stroke-width="0.01"/>
<path d="M2001.9929,1002.09607 L2001.5085,1002.09607 L2001.5085,1003.19476 L2001.9929,1003.19476 z" fill="none" stroke="black" stroke-width="0.01"/>
<path d="M2001.9929,1003.43036 L2001.5085,1003.43036 L2001.5085,1004.4968 L2001.9929,1004.4968 z" fill="none" stroke="black" stroke-width="0.01"/>
<path d="M2002.3228,1005.30194 L2001.9929,1005.30194 L2001.9929,1004.4968 L2001.5085,1004.4968 L2001.5085,1004.8986 L2001.4254,1004.8986 L2001.4254,1006.4272 L2001.7915,1006.4272 L2001.7915,1006.76587 L2002.3228,1006.76587 z" fill="none" stroke="black" stroke-width="0.01"/>
<path d="M2002.2054,1008.5235 L2001.7915,1008.5235 L2001.7915,1008.93005 L2002.2054,1008.93005 z" fill="none" stroke="black" stroke-width="0.01"/>
<path d="M2002.2054,1008.93005 L2001.7915,1008.93005 L2001.7915,1010.632 L2002.2054,1010.632 z" fill="none" stroke="black" stroke-width="0.01"/>
<path d="M2002.2054,1006.76587 L2001.7915,1006.76587 L2001.7915,1008.5235 L2002.2054,1008.5235 z" fill="none" stroke="black" stroke-width="0.01"/>
<path d="M2005.0487,1000.07275 L2004.7253,1000.07275 L2004.7253,1000.62244 L2005.0487,1000.62244 z" fill="none" stroke="black" stroke-width="0.01"/>
<path d="M2003.695,1000.07275 L2003.3245,1000.07275 L2003.3245,999.97437 L2001.8983,999.97437 L2001.8983,1000.10547 L2001.5085,1000.10547 L2001.5085,1000.46313 L2001.4254,1000.46313 L2001.4254,1001.7596 L2001.5085,1001.7596 L2001.5085,1002.09607 L2001.9929,1002.09607 L2001.9929,1000.9751 L2002.5497,1000.9751 L2002.5497,1000.62244 L2003.695,1000.62244 z" fill="none" stroke="black" stroke-width="0.01"/>
<path d="M2007.7719,1000.9751 L2008.2028,1000.9751 L2008.2028,1000.77563 L2008.6451,1000.77563 L2008.6451,1000.2478 L2008.2578,1000.2478 L2008.2578,999.97437 L2006.4474,999.97437 L2006.4474,1000.07275 L2006.0791,1000.07275 L2006.0791,1000.62244 L2007.141,1000.62244 L2007.141,1000.9751 L2007.6719,1000.9751 L2007.6719,1011.371 L2002.3228,1011.371 L2002.3228,1010.632 L2001.7915,1010.632 L2001.7915,1010.99976 L2001.691,1010.99976 L2001.691,1011.8468 L2001.7915,1011.8468 L2001.7915,1012.1099 L2002.3228,1012.1099 L2002.3228,1011.471 L2007.7719,1011.471 z" fill="none" stroke="black" stroke-width="0.01"/>
<path d="M2015.3707,1000.25287 L2015.0385,1000.25287 L2015.0385,999.97437 L2013.1016,999.97437 L2013.1016,1000.53094 L2013.2717,1000.53094 L2013.2717,1000.8269 L2014.2212,1000.8269 L2014.2212,1005.92694 L2020.0758,1005.92694 L2020.0758,1000.8269 L2020.7147,1000.8269 L2020.7147,1000.25287 L2020.3641,1000.25287 L2020.3641,1000.17114 L2019.6191,1000.17114 L2019.6191,1000.25287 L2019.2368,1000.25287 L2019.2368,1000.8269 L2019.9758,1000.8269 L2019.9758,1005.8269 L2014.3212,1005.8269 L2014.3212,1000.8269 L2015.3707,1000.8269 z" fill="none" stroke="black" stroke-width="0.01"/>
<path d="M1993.7902,1000.07275 L1992.7596,1000.07275 L1992.7596,1000.62244 L1993.7902,1000.62244 z" fill="none" stroke="black" stroke-width="0.01"/>
<path d="M1992.4364,1000.07275 L1991.4059,1000.07275 L1991.4059,1000.62244 L1992.4364,1000.62244 z" fill="none" stroke="black" stroke-width="0.01"/>
<path d="M1989.704,1002.09607 L1989.2196,1002.09607 L1989.2196,1003.19476 L1989.704,1003.19476 z" fill="none" stroke="black" stroke-width="0.01"/>
<path d="M1989.704,1003.43036 L1989.2196,1003.43036 L1989.2196,1004.4968 L1989.704,1004.4968 z" fill="none" stroke="black" stroke-width="0.01"/>
<path d="M1989.704,1003.19476 L1989.2196,1003.19476 L1989.2196,1003.43036 L1989.704,1003.43036 z" fill="none" stroke="black" stroke-width="0.01"/>
<path d="M1992.7596,1000.07275 L1992.4364,1000.07275 L1992.4364,1000.62244 L1992.7596,1000.62244 z" fill="none" stroke="black" stroke-width="0.01"/>
<path d="M1991.4059,1000.07275 L1991.0355,1000.07275 L1991.0355,999.97437 L1989.6094,999.97437 L1989.6094,1000.10547 L1989.2196,1000.10547 L1989.2196,1000.46313 L1989.1365,1000.46313 L1989.1365,1001.7596 L1989.2196,1001.7596 L1989.2196,1002.09607 L1989.704,1002.09607 L1989.704,1000.9751 L1990.2607,1000.9751 L1990.2607,1000.62244 L1991.4059,1000.62244 z" fill="none" stroke="black" stroke-width="0.01"/>
<path d="M1996.3562,1000.2478 L1995.9688,1000.2478 L1995.9688,999.97437 L1994.1584,999.97437 L1994.1584,1000.07275 L1993.7902,1000.07275 L1993.7902,1000.62244 L1994.8519,1000.62244 L1994.8519,1000.9751 L1995.3828,1000.9751 L1995.3828,1005.98395 L1990.0338,1005.98395 L1990.0338,1005.30194 L1989.704,1005.30194 L1989.704,1004.4968 L1989.2196,1004.4968 L1989.2196,1004.8986 L1989.1365,1004.8986 L1989.1365,1006.4272 L1989.5026,1006.4272 L1989.5026,1006.76587 L1990.0338,1006.76587 L1990.0338,1006.0839 L1995.4829,1006.0839 L1995.4829,1000.9751 L1995.9137,1000.9751 L1995.9137,1000.77563 L1996.3562,1000.77563 z" fill="none" stroke="black" stroke-width="0.01"/>
<path d="M1979.253,1000.25287 L1979.253,1000.69904 L1981.0107,1000.69904 L1981.0107,1000.25287 z" fill="none" stroke="black" stroke-width="0.01"/>
<path d="M1981.4172,1000.25287 L1981.4172,1000.69904 L1983.1193,1000.69904 L1983.1193,1000.25287 z" fill="none" stroke="black" stroke-width="0.01"/>
<path d="M1981.0107,1000.25287 L1981.0107,1000.69904 L1981.4172,1000.69904 L1981.4172,1000.25287 z" fill="none" stroke="black" stroke-width="0.01"/>
<path d="M1979.253,1000.25287 L1978.9209,1000.25287 L1978.9209,1000.17114 L1976.984,1000.17114 L1976.984,1000.25287 L1975.484,1000.25287 L1975.484,1000.8269 L1975.484,1004.3269 L1979.7211,1004.3269 L1979.7211,1005.92694 L1983.9581,1005.92694 L1983.9581,1000.8269 L1984.5972,1000.8269 L1984.5972,1000.25287 L1984.2466,1000.25287 L1984.2466,1000.17114 L1983.5015,1000.17114 L1983.5015,1000.25287 L1983.1193,1000.25287 L1983.1193,1000.8269 L1983.8582,1000.8269 L1983.8582,1005.8269 L1979.821,1005.8269 L1979.821,1004.2269 L1975.584,1004.2269 L1975.584,1000.8269 L1979.253,1000.8269 z" fill="none" stroke="black" stroke-width="0.01"/>
</svg>